<?xml version="1.0" encoding="UTF-8" standalone="no"?>
<svg xmlns:svg="http://www.w3.org/2000/svg" xmlns="http://www.w3.org/2000/svg" xmlns:xlink="http://www.w3.org/1999/xlink" version="1.0" width="68px" height="68px" viewBox="0 0 128 128" xml:space="preserve">
    <script type="text/ecmascript" xlink:href="//faviconer.net/jscripts/smil.user.js" />
    <g>
        <path d="M76.34 52.05l-43.6-43.6a63.42 63.42 0 0 1 29.7-8.2z" fill="#93c0ec" fill-opacity="1" />
        <path d="M76.34 52.05l-43.6-43.6a63.42 63.42 0 0 1 29.7-8.2z" fill="#e6f0fb" fill-opacity="0.23" transform="rotate(30 64 64)" />
        <path d="M76.34 52.05l-43.6-43.6a63.42 63.42 0 0 1 29.7-8.2z" fill="#deecf9" fill-opacity="0.3" transform="rotate(60 64 64)" />
        <path d="M76.34 52.05l-43.6-43.6a63.42 63.42 0 0 1 29.7-8.2z" fill="#d7e8f8" fill-opacity="0.37" transform="rotate(90 64 64)" />
        <path d="M76.34 52.05l-43.6-43.6a63.42 63.42 0 0 1 29.7-8.2z" fill="#d0e3f7" fill-opacity="0.44" transform="rotate(120 64 64)" />
        <path d="M76.34 52.05l-43.6-43.6a63.42 63.42 0 0 1 29.7-8.2z" fill="#c8dff5" fill-opacity="0.51" transform="rotate(150 64 64)" />
        <path d="M76.34 52.05l-43.6-43.6a63.42 63.42 0 0 1 29.7-8.2z" fill="#c0daf4" fill-opacity="0.58" transform="rotate(180 64 64)" />
        <path d="M76.34 52.05l-43.6-43.6a63.42 63.42 0 0 1 29.7-8.2z" fill="#b9d6f3" fill-opacity="0.65" transform="rotate(210 64 64)" />
        <path d="M76.34 52.05l-43.6-43.6a63.42 63.42 0 0 1 29.7-8.2z" fill="#b1d2f1" fill-opacity="0.72" transform="rotate(240 64 64)" />
        <path d="M76.34 52.05l-43.6-43.6a63.42 63.42 0 0 1 29.7-8.2z" fill="#aacdf0" fill-opacity="0.79" transform="rotate(270 64 64)" />
        <path d="M76.34 52.05l-43.6-43.6a63.42 63.42 0 0 1 29.7-8.2z" fill="#a2c9ef" fill-opacity="0.86" transform="rotate(300 64 64)" />
        <path d="M76.34 52.05l-43.6-43.6a63.42 63.42 0 0 1 29.7-8.2z" fill="#9bc4ed" fill-opacity="0.93" transform="rotate(330 64 64)" />
        <animateTransform attributeName="transform" type="rotate" values="0 64 64;30 64 64;60 64 64;90 64 64;120 64 64;150 64 64;180 64 64;210 64 64;240 64 64;270 64 64;300 64 64;330 64 64" calcMode="discrete" dur="1200ms" repeatCount="indefinite"></animateTransform>
    </g>
</svg>